<svg width="16" height="16" viewBox="0 0 16 16" fill="none" xmlns="http://www.w3.org/2000/svg">
<path d="M4 0.666016V1.99935H3.33333C2.6 1.99935 2 2.59935 2 3.33268V12.666C2 13.3993 2.6 13.9993 3.33333 13.9993H12.6667C13.4 13.9993 14 13.3993 14 12.666V3.33268C14 2.59935 13.4 1.99935 12.6667 1.99935H12V0.666016H10.6667V1.99935H5.33333V0.666016H4ZM3.33333 5.33268H12.6667V12.666H3.33333V5.33268ZM6.66667 7.33268L4.66667 9.33268L6.66667 11.3327V9.99935H9.33333V11.3327L11.3333 9.33268L9.33333 7.33268V8.66602H6.66667V7.33268Z" fill="#6A9586"/>
</svg>
