<svg width="60" height="30" viewBox="0 0 60 30" fill="none" xmlns="http://www.w3.org/2000/svg">
<g clip-path="url(#clip0_570_4656)">
<path d="M6.5 12C7.3 12 8 12.7 8 13.5V22.5C8 23.3 7.3 24 6.5 24C5.7 24 5 23.3 5 22.5V13.5C5 12.7 5.7 12 6.5 12ZM20 24H12C10.9 24 10 23.1 10 22V12.8C10 12.3 10.2 11.8 10.5 11.5L13.2 8.49999L13.8 5.99999C13.9 5.39999 14.6 5.09999 15.1 5.29999C16 5.49999 17 6.29999 17 7.89999C17 9.59999 16 12 16 12H23C24.1 12 25 12.9 25 14V14.9C25 15.3 24.9 15.7 24.7 16.1L21.7 22.9C21.4 23.6 20.8 24 20 24Z" fill="#B1CDBA"/>
<path d="M36.5 12C37.3 12 38 12.7 38 13.5V22.5C38 23.3 37.3 24 36.5 24C35.7 24 35 23.3 35 22.5V13.5C35 12.7 35.7 12 36.5 12ZM50 24H42C40.9 24 40 23.1 40 22V12.8C40 12.3 40.2 11.8 40.5 11.5L43.2 8.49999L43.8 5.99999C43.9 5.39999 44.6 5.09999 45.1 5.29999C46 5.49999 47 6.29999 47 7.89999C47 9.59999 46 12 46 12H53C54.1 12 55 12.9 55 14V14.9C55 15.3 54.9 15.7 54.7 16.1L51.7 22.9C51.4 23.6 50.8 24 50 24Z" fill="#6A9586"/>
</g>
<defs>
<clipPath id="clip0_570_4656">
<rect width="60" height="30" fill="white"/>
</clipPath>
</defs>
</svg>
