<svg width="60" height="30" viewBox="0 0 60 30" fill="none" xmlns="http://www.w3.org/2000/svg">
<g clip-path="url(#clip0_570_4656)">
<path d="M39 5C38.8619 5 38.7279 5.01438 38.5977 5.04102C37.6861 5.22743 37 6.03313 37 7V25L45 22L53 25V7C53 6.8625 52.9857 6.72754 52.959 6.59766C52.7992 5.81631 52.1837 5.2008 51.4023 5.04102C51.2721 5.01438 51.1381 5 51 5H39Z" fill="#6A9586"/>
<path d="M9 5C8.86188 5 8.72788 5.01438 8.59766 5.04102C7.68608 5.22743 7 6.03313 7 7V25L15 22L23 25V7C23 6.8625 22.9857 6.72754 22.959 6.59766C22.7992 5.81631 22.1837 5.2008 21.4023 5.04102C21.2721 5.01438 21.1381 5 21 5H9Z" fill="#B1CDBA"/>
</g>
<defs>
<clipPath id="clip0_570_4656">
<rect width="60" height="30" fill="white"/>
</clipPath>
</defs>
</svg>
