<svg width="260" height="277" viewBox="0 0 260 277" fill="none" xmlns="http://www.w3.org/2000/svg">
<path d="M131.075 247.9C131.018 247.9 130.961 247.893 130.904 247.878C130.549 247.784 130.338 247.422 130.433 247.069L151.09 169.746C151.184 169.394 151.548 169.183 151.903 169.277C152.257 169.371 152.468 169.733 152.374 170.086L131.716 247.409C131.637 247.705 131.369 247.9 131.075 247.9Z" fill="#212121"/>
<path d="M195.58 247.9C195.257 247.9 194.974 247.666 194.924 247.338L183.092 170.016C183.036 169.655 183.286 169.317 183.648 169.262C184.011 169.208 184.35 169.455 184.405 169.817L196.237 247.139C196.292 247.5 196.043 247.837 195.68 247.893C195.647 247.898 195.613 247.9 195.58 247.9Z" fill="#212121"/>
<path d="M148.439 169.916C148.439 169.916 159.128 119.77 159.372 118.427C160.136 114.224 161.736 110.207 166.018 109.36C166.552 109.254 167.094 109.201 167.639 109.201H172.08H187.479H191.92C192.464 109.201 193.007 109.254 193.541 109.36C198.048 110.251 200.976 114.611 200.496 119.071L190.241 170.316" fill="white"/>
<path d="M190.242 170.977C190.199 170.977 190.155 170.973 190.111 170.964C189.752 170.893 189.518 170.545 189.59 170.187L199.839 118.972C200.279 114.743 197.461 110.809 193.412 110.009C192.922 109.912 192.42 109.863 191.92 109.863H167.639C167.14 109.863 166.638 109.912 166.148 110.009C162.913 110.648 160.968 113.361 160.026 118.545C159.783 119.882 149.526 168.005 149.089 170.053C149.013 170.411 148.661 170.639 148.302 170.563C147.943 170.487 147.714 170.136 147.79 169.779C147.897 169.278 158.479 119.627 158.719 118.309C159.381 114.667 160.844 109.709 165.889 108.711C166.464 108.598 167.053 108.54 167.639 108.54H191.92C192.507 108.54 193.095 108.598 193.67 108.711C198.397 109.646 201.686 114.227 201.157 119.141C201.155 119.161 201.152 119.181 201.148 119.2L190.893 170.445C190.83 170.76 190.552 170.977 190.242 170.977Z" fill="#212121"/>
<path d="M123.721 169.255L190.936 169.248V170.13C190.936 171.844 189.54 173.234 187.818 173.234H120.478L123.721 169.255Z" fill="#212121"/>
<path d="M79.7915 217.08C79.4109 212.602 82.4162 208.821 86.6783 207.399C89.1084 206.587 93.8527 204.814 96.1367 203.653C98.8351 202.282 103.669 199.132 104.919 195.122L129.278 191.864L129.297 217.08" fill="#6A9586"/>
<path d="M145.62 217.026L145.659 195.615L172.345 198.953C173.702 202.958 175.964 206.495 178.51 207.391C181.057 208.286 183.084 209.886 184.267 211.954C185.406 213.737 185.406 215.329 185.406 216.921L145.621 217.026L145.62 217.026Z" fill="#6A9586"/>
<path d="M159.225 128.948C159.354 128.949 159.479 128.907 159.582 128.831C159.685 128.755 159.761 128.647 159.798 128.524C159.835 128.401 159.831 128.27 159.788 128.149C159.744 128.028 159.663 127.925 159.556 127.854L158.74 127.313C157.344 126.39 156.171 125.168 155.304 123.737C154.437 122.305 153.899 120.699 153.728 119.035C153.722 118.955 153.701 118.877 153.665 118.805C153.628 118.733 153.578 118.67 153.517 118.618C153.455 118.566 153.384 118.528 153.307 118.504C153.231 118.48 153.15 118.472 153.07 118.481C152.99 118.489 152.913 118.513 152.843 118.552C152.773 118.591 152.711 118.644 152.661 118.707C152.612 118.77 152.576 118.842 152.555 118.92C152.534 118.998 152.529 119.078 152.541 119.158C152.73 120.998 153.325 122.773 154.283 124.355C155.241 125.937 156.538 127.287 158.081 128.308L158.897 128.848C158.994 128.913 159.108 128.948 159.225 128.948Z" fill="#212121"/>
<path d="M97.9133 131.545C98.361 128.939 99.6646 126.556 101.618 124.773L101.62 124.771L129.056 99.6836C132.02 96.9241 135.922 95.3924 139.973 95.398H145.574L162.316 95.335L166.718 95.398C169.024 95.3979 171.303 95.8944 173.399 96.8539C175.496 97.8133 177.361 99.2131 178.868 100.958L178.825 100.91L200.507 127.768C200.882 128.238 202.193 130.696 202.193 130.696C205.92 138.685 199.713 147.743 190.915 147.152C190.08 147.134 187.794 146.874 186.998 146.078" fill="white"/>
<path d="M191.72 147.776C193.766 147.771 195.779 147.251 197.571 146.264C199.364 145.276 200.878 143.854 201.976 142.126C203.073 140.399 203.718 138.424 203.85 136.382C203.983 134.34 203.599 132.298 202.734 130.444C202.729 130.434 202.725 130.424 202.72 130.415C202.496 129.998 201.364 127.883 200.974 127.396L179.367 100.631C179.352 100.609 179.337 100.588 179.32 100.568C177.757 98.7583 175.823 97.3063 173.648 96.3109C171.474 95.3156 169.11 94.8004 166.718 94.8004L162.325 94.7373L145.572 94.8004H139.973C135.771 94.7945 131.724 96.3832 128.648 99.2454C128.64 99.2529 128.632 99.2607 128.624 99.2687L101.216 124.331L101.208 124.339C99.1557 126.207 97.7885 128.708 97.3239 131.443C97.297 131.599 97.3333 131.759 97.4246 131.889C97.516 132.018 97.655 132.106 97.8111 132.133C97.9672 132.16 98.1276 132.124 98.257 132.032C98.3864 131.941 98.4742 131.802 98.5011 131.646C98.9216 129.168 100.161 126.903 102.021 125.213L102.029 125.204L129.459 100.124C129.469 100.115 129.479 100.104 129.488 100.095C132.34 97.4542 136.086 95.9895 139.973 95.995H145.574L162.319 95.9319L166.71 95.9948C168.916 95.9937 171.097 96.4651 173.107 97.3772C175.116 98.2892 176.906 99.6208 178.358 101.282L178.36 101.286L200.043 128.143C200.288 128.449 201.16 130.029 201.658 130.963C202.463 132.694 202.803 134.604 202.644 136.507C202.485 138.409 201.834 140.237 200.754 141.811C199.674 143.384 198.202 144.65 196.484 145.482C194.766 146.314 192.86 146.685 190.955 146.556C190.946 146.556 190.937 146.556 190.928 146.555C189.838 146.532 187.962 146.199 187.42 145.656C187.364 145.599 187.299 145.554 187.226 145.522C187.153 145.491 187.075 145.475 186.995 145.474C186.916 145.473 186.837 145.488 186.764 145.518C186.691 145.548 186.624 145.593 186.568 145.649C186.512 145.705 186.467 145.772 186.437 145.845C186.407 145.918 186.392 145.997 186.393 146.076C186.394 146.155 186.41 146.234 186.441 146.307C186.473 146.379 186.518 146.445 186.575 146.5C187.678 147.603 190.621 147.739 190.884 147.748C191.164 147.767 191.442 147.776 191.72 147.776Z" fill="#212121"/>
<path d="M129.94 132.845C130.06 132.845 130.179 132.808 130.278 132.74C139.165 126.644 139.893 123.991 138.126 121.227C138.084 121.161 138.03 121.103 137.965 121.058C137.901 121.013 137.828 120.981 137.751 120.964C137.675 120.946 137.595 120.945 137.518 120.958C137.44 120.972 137.366 121.001 137.3 121.043C137.234 121.086 137.176 121.141 137.131 121.205C137.086 121.27 137.055 121.343 137.038 121.42C137.021 121.496 137.02 121.576 137.034 121.653C137.048 121.731 137.077 121.805 137.12 121.871C138.056 123.335 139.222 125.158 129.602 131.755C129.497 131.827 129.418 131.931 129.376 132.052C129.334 132.172 129.332 132.303 129.369 132.425C129.407 132.547 129.483 132.653 129.586 132.729C129.689 132.804 129.813 132.845 129.941 132.845H129.94Z" fill="#212121"/>
<path d="M139.618 62.2044C138.698 61.5949 137.625 61.2566 136.521 61.228C135.418 61.1994 134.329 61.4818 133.378 62.0428C132.428 62.6038 131.655 63.4209 131.147 64.4006C130.639 65.3803 130.417 66.4832 130.506 67.583C130.596 68.6829 130.993 69.7354 131.652 70.6203C132.312 71.5052 133.207 72.1867 134.235 72.587C135.264 72.9873 136.384 73.0901 137.469 72.8838C138.553 72.6775 139.557 72.1704 140.367 71.4204C139.434 74.2677 139.436 77.3386 140.373 80.1846C141.31 83.0307 143.132 85.5027 145.574 87.2396V95.5396C145.571 97.3437 146.199 99.092 147.349 100.482L157.052 102.373C158.282 101.706 159.31 100.719 160.026 99.516C160.742 98.3132 161.12 96.9393 161.119 95.5396V87.7318C163.721 86.1174 165.725 83.6972 166.824 80.8395C167.924 77.9819 168.059 74.8433 167.21 71.9016C168.065 72.5077 169.067 72.8742 170.112 72.963C171.156 73.0519 172.206 72.8599 173.151 72.4069C174.097 71.954 174.904 71.2565 175.489 70.3868C176.074 69.5172 176.416 68.5069 176.479 67.4606C176.543 66.4144 176.325 65.3702 175.849 64.4363C175.373 63.5024 174.656 62.7127 173.772 62.149C172.888 61.5854 171.87 61.2682 170.822 61.2305C169.774 61.1927 168.736 61.4357 167.813 61.9342L166.695 52.3499L140.023 51.7529L139.618 62.2044Z" fill="white"/>
<path d="M157.052 102.97C157.152 102.97 157.25 102.945 157.337 102.897C158.662 102.179 159.768 101.116 160.539 99.821C161.31 98.5259 161.716 97.0468 161.716 95.5399V88.0596C164.144 86.4753 166.048 84.2062 167.185 81.5397C168.323 78.8731 168.643 75.929 168.106 73.0803C169.082 73.4898 170.144 73.654 171.198 73.5584C172.252 73.4629 173.267 73.1106 174.153 72.5322C175.04 71.9539 175.771 71.1672 176.283 70.241C176.795 69.3147 177.073 68.2772 177.091 67.219C177.109 66.1608 176.868 65.1143 176.388 64.171C175.908 63.2276 175.204 62.4162 174.338 61.8077C173.472 61.1992 172.47 60.8121 171.42 60.6802C170.369 60.5484 169.303 60.6759 168.313 61.0515L167.29 52.281C167.273 52.1379 167.205 52.0057 167.099 51.9088C166.992 51.8119 166.854 51.7567 166.71 51.7534L140.039 51.1564C139.882 51.1526 139.73 51.2107 139.616 51.318C139.502 51.4253 139.434 51.5733 139.429 51.7299L139.06 61.2129C138.06 60.7572 136.96 60.5634 135.864 60.6499C134.768 60.7363 133.712 61.1 132.796 61.7069C131.879 62.3137 131.132 63.1437 130.625 64.1188C130.118 65.0938 129.867 66.1818 129.897 67.2804C129.926 68.3791 130.235 69.4521 130.793 70.3986C131.352 71.3452 132.142 72.134 133.09 72.691C134.037 73.248 135.111 73.5548 136.21 73.5824C137.309 73.6101 138.397 73.3578 139.371 72.8493C138.812 75.578 139.042 78.4097 140.035 81.0124C141.028 83.615 142.742 85.8807 144.977 87.5436V95.5399C144.978 97.4819 145.654 99.3634 146.888 100.863C146.976 100.97 147.099 101.042 147.234 101.069L156.937 102.959C156.975 102.967 157.013 102.97 157.052 102.97ZM167.21 71.3049C167.118 71.3049 167.026 71.3264 166.943 71.3677C166.861 71.4091 166.789 71.4691 166.733 71.5431C166.677 71.6171 166.64 71.703 166.623 71.794C166.606 71.885 166.611 71.9787 166.636 72.0676C167.449 74.8844 167.32 77.8896 166.267 80.6258C165.214 83.362 163.295 85.6793 160.804 87.225C160.717 87.2786 160.646 87.3533 160.597 87.442C160.548 87.5307 160.522 87.6306 160.522 87.732V95.5399C160.522 96.7963 160.193 98.0308 159.566 99.1198C158.939 100.209 158.037 101.114 156.951 101.745L147.679 99.9393C146.703 98.6803 146.172 97.1328 146.172 95.5399V87.2399C146.172 87.1448 146.149 87.051 146.105 86.9665C146.062 86.8819 145.998 86.809 145.921 86.7538C143.583 85.0907 141.838 82.7238 140.94 79.9986C140.043 77.2735 140.041 74.333 140.934 71.6065C140.976 71.4808 140.974 71.3449 140.93 71.2203C140.885 71.0956 140.801 70.9891 140.689 70.9177C140.578 70.8463 140.446 70.8139 140.314 70.8256C140.182 70.8373 140.058 70.8925 139.961 70.9825C139.234 71.6561 138.332 72.1115 137.358 72.2967C136.384 72.4819 135.377 72.3894 134.453 72.0298C133.529 71.6702 132.725 71.058 132.133 70.2631C131.541 69.4683 131.184 68.5228 131.103 67.5349C131.023 66.5469 131.222 65.5563 131.679 64.6762C132.135 63.7961 132.829 63.0621 133.683 62.558C134.537 62.0539 135.515 61.8001 136.506 61.8255C137.497 61.851 138.461 62.1547 139.288 62.702C139.376 62.7606 139.478 62.7946 139.584 62.8006C139.69 62.8065 139.795 62.7842 139.89 62.736C139.984 62.6877 140.064 62.6152 140.121 62.5259C140.178 62.4366 140.21 62.3337 140.214 62.2278L140.598 52.3631L166.163 52.9355L167.221 62.0037C167.233 62.1007 167.268 62.1933 167.323 62.2736C167.378 62.3539 167.453 62.4194 167.539 62.4643C167.626 62.5093 167.722 62.5323 167.82 62.5314C167.917 62.5306 168.013 62.5058 168.099 62.4592C168.928 62.0103 169.862 61.7913 170.804 61.8247C171.746 61.8582 172.662 62.1429 173.457 62.6495C174.252 63.1561 174.897 63.866 175.326 64.7057C175.754 65.5454 175.95 66.4843 175.893 67.4251C175.836 68.3659 175.528 69.2744 175.002 70.0563C174.475 70.8383 173.749 71.4653 172.899 71.8723C172.049 72.2794 171.105 72.4516 170.166 72.3713C169.227 72.2909 168.326 71.9608 167.557 71.4153C167.456 71.3433 167.334 71.3047 167.21 71.3049Z" fill="#212121"/>
<path d="M154.752 73.5435C154.891 73.5436 155.026 73.495 155.133 73.4063C155.241 73.3175 155.313 73.194 155.339 73.0573C155.365 72.9205 155.342 72.7791 155.275 72.6573C155.207 72.5356 155.1 72.4412 154.97 72.3905L151.84 71.1655L154.155 64.1324C154.18 64.0579 154.189 63.9793 154.183 63.9011C154.177 63.8229 154.156 63.7467 154.121 63.6767C154.086 63.6067 154.037 63.5443 153.977 63.4932C153.918 63.442 153.849 63.4031 153.775 63.3786C153.7 63.354 153.621 63.3444 153.543 63.3503C153.465 63.3562 153.389 63.3774 153.319 63.4127C153.249 63.448 153.186 63.4968 153.135 63.5562C153.084 63.6156 153.045 63.6846 153.021 63.759L150.529 71.3289C150.481 71.4739 150.49 71.6317 150.555 71.7698C150.62 71.9079 150.736 72.0159 150.878 72.0715L154.534 73.5023C154.604 73.5295 154.678 73.5435 154.752 73.5435Z" fill="#212121"/>
<path d="M160.086 68.7546C157.515 68.7546 155.431 66.6708 155.431 64.1004C155.431 61.53 157.515 59.4463 160.086 59.4463C162.657 59.4463 164.741 61.53 164.741 64.1004C164.741 66.6708 162.657 68.7546 160.086 68.7546Z" fill="white"/>
<path d="M160.086 69.3519C161.124 69.3519 162.14 69.0439 163.004 68.4669C163.867 67.8899 164.541 67.0698 164.938 66.1103C165.336 65.1507 165.44 64.0949 165.237 63.0763C165.034 62.0577 164.534 61.122 163.8 60.3876C163.065 59.6532 162.129 59.1531 161.11 58.9505C160.091 58.7479 159.035 58.8519 158.076 59.2493C157.116 59.6468 156.296 60.3198 155.718 61.1834C155.141 62.0469 154.833 63.0622 154.833 64.1007C154.835 65.4929 155.389 66.8276 156.373 67.812C157.358 68.7965 158.693 69.3502 160.086 69.3519ZM160.086 60.0436C160.888 60.0436 161.673 60.2815 162.34 60.7273C163.007 61.1731 163.528 61.8068 163.835 62.5481C164.142 63.2895 164.222 64.1052 164.066 64.8922C163.909 65.6793 163.523 66.4022 162.955 66.9696C162.388 67.537 161.664 67.9234 160.877 68.0799C160.09 68.2365 159.274 68.1561 158.533 67.8491C157.791 67.542 157.157 67.022 156.711 66.3548C156.266 65.6876 156.028 64.9032 156.028 64.1007C156.029 63.0251 156.457 61.9938 157.217 61.2332C157.978 60.4726 159.01 60.0448 160.086 60.0436Z" fill="#212121"/>
<path d="M146.899 68.7546C144.328 68.7546 142.244 66.6708 142.244 64.1004C142.244 61.53 144.328 59.4463 146.899 59.4463C149.47 59.4463 151.555 61.53 151.555 64.1004C151.555 66.6708 149.47 68.7546 146.899 68.7546Z" fill="white"/>
<path d="M146.899 69.3519C147.938 69.3519 148.953 69.0439 149.817 68.4669C150.681 67.8899 151.354 67.0698 151.752 66.1103C152.149 65.1507 152.253 64.0949 152.05 63.0763C151.848 62.0577 151.348 61.122 150.613 60.3876C149.878 59.6532 148.943 59.1531 147.924 58.9505C146.905 58.7479 145.849 58.8519 144.889 59.2493C143.929 59.6468 143.109 60.3198 142.532 61.1834C141.955 62.0469 141.647 63.0622 141.647 64.1007C141.648 65.4929 142.202 66.8276 143.187 67.812C144.172 68.7965 145.507 69.3502 146.899 69.3519ZM146.899 60.0436C147.702 60.0436 148.486 60.2815 149.154 60.7273C149.821 61.1731 150.341 61.8068 150.648 62.5481C150.955 63.2895 151.036 64.1052 150.879 64.8922C150.723 65.6793 150.336 66.4022 149.769 66.9696C149.201 67.537 148.478 67.9234 147.691 68.0799C146.904 68.2365 146.088 68.1561 145.346 67.8491C144.605 67.542 143.971 67.022 143.525 66.3548C143.079 65.6876 142.841 64.9032 142.841 64.1007C142.842 63.0251 143.27 61.9938 144.031 61.2332C144.792 60.4726 145.823 60.0448 146.899 60.0436Z" fill="#212121"/>
<path d="M151.788 64.2946H155.194C155.352 64.2946 155.504 64.2317 155.616 64.1197C155.728 64.0078 155.791 63.8559 155.791 63.6976C155.791 63.5392 155.728 63.3874 155.616 63.2754C155.504 63.1635 155.352 63.1006 155.194 63.1006H151.788C151.63 63.1006 151.478 63.1635 151.366 63.2754C151.254 63.3874 151.191 63.5392 151.191 63.6976C151.191 63.8559 151.254 64.0078 151.366 64.1197C151.478 64.2317 151.63 64.2946 151.788 64.2946Z" fill="#212121"/>
<path d="M136.735 103.356C136.436 103.487 136.162 103.617 135.912 103.745C132.061 105.735 129.814 107.027 128.966 107.526L127.369 108.676C126.187 109.523 125.223 110.638 124.554 111.929C123.885 113.22 123.532 114.651 123.522 116.105C123.513 117.559 123.848 118.994 124.499 120.294C125.151 121.594 126.101 122.721 127.272 123.583C129.591 125.354 133.153 125.303 135.106 123.571C137.115 121.792 138.653 119.05 141.314 117.728L155.887 103.356C156.747 102.924 157.143 102.4 157.024 101.622C156.697 99.4598 151.593 99.5949 146.311 100.589" fill="white"/>
<path d="M131.291 125.497C132.86 125.497 134.39 125.004 135.503 124.018C136.249 123.324 136.95 122.582 137.601 121.798C138.769 120.451 139.976 119.059 141.58 118.262C141.636 118.234 141.688 118.197 141.733 118.152L156.241 103.846C156.722 103.599 157.831 102.949 157.615 101.532C157.571 101.256 157.471 100.992 157.319 100.757C157.168 100.522 156.969 100.321 156.735 100.167C154.654 98.69 149.241 99.4299 146.201 100.002C146.124 100.017 146.05 100.046 145.984 100.089C145.919 100.132 145.862 100.188 145.818 100.252C145.774 100.317 145.743 100.39 145.726 100.467C145.71 100.544 145.71 100.623 145.724 100.7C145.739 100.777 145.768 100.85 145.811 100.916C145.854 100.982 145.909 101.038 145.974 101.083C146.039 101.127 146.112 101.158 146.189 101.174C146.265 101.19 146.345 101.191 146.422 101.176C151.208 100.276 154.805 100.262 156.044 101.142C156.147 101.203 156.235 101.285 156.302 101.384C156.369 101.482 156.415 101.594 156.434 101.712C156.485 102.042 156.463 102.4 155.62 102.824C155.564 102.851 155.513 102.888 155.468 102.932L140.961 117.237C139.189 118.145 137.923 119.604 136.699 121.016C136.082 121.761 135.418 122.466 134.711 123.125C132.941 124.695 129.701 124.688 127.635 123.11C126.538 122.304 125.648 121.25 125.037 120.035C124.426 118.819 124.112 117.476 124.12 116.115C124.128 114.755 124.458 113.415 125.083 112.207C125.709 110.998 126.611 109.955 127.718 109.163L129.293 108.028C130.105 107.551 132.358 106.255 136.187 104.277C136.42 104.158 136.686 104.031 136.976 103.904C137.048 103.872 137.113 103.827 137.167 103.77C137.221 103.713 137.264 103.647 137.292 103.573C137.321 103.5 137.334 103.422 137.333 103.344C137.331 103.266 137.314 103.188 137.282 103.117C137.25 103.045 137.205 102.98 137.148 102.926C137.092 102.872 137.025 102.829 136.952 102.801C136.879 102.772 136.801 102.759 136.722 102.76C136.644 102.762 136.566 102.779 136.495 102.811C136.183 102.948 135.895 103.084 135.639 103.216C131.745 105.228 129.463 106.542 128.662 107.014C128.646 107.023 128.631 107.033 128.616 107.044L127.02 108.194C125.762 109.096 124.735 110.282 124.023 111.657C123.311 113.032 122.935 114.556 122.925 116.103C122.915 117.651 123.271 119.18 123.965 120.564C124.659 121.947 125.671 123.147 126.917 124.066C128.181 125.005 129.716 125.507 131.291 125.497Z" fill="#212121"/>
<path d="M165.253 108.676C166.435 109.523 167.4 110.638 168.069 111.929C168.738 113.22 169.092 114.651 169.101 116.104C169.111 117.558 168.776 118.994 168.125 120.294C167.473 121.593 166.524 122.721 165.353 123.583C163.032 125.354 159.471 125.303 157.517 123.571C154.505 120.905 152.553 116.073 146.287 117.104C143.46 117.568 139.299 118.696 138.954 116.009C138.713 114.149 143.532 112.626 147.035 111.379C141.701 110.891 134.718 110.244 134.798 107.823C134.878 105.401 139.995 105.403 146.9 106.085C139.46 104.008 135.246 103.94 135.598 101.622C136.177 97.8012 151.669 101.154 156.711 103.745C160.562 105.735 162.809 107.027 163.659 107.526L165.253 108.676Z" fill="white"/>
<path d="M161.331 125.495C162.91 125.505 164.449 125 165.716 124.058C166.961 123.139 167.97 121.938 168.663 120.555C169.355 119.171 169.71 117.643 169.699 116.096C169.688 114.549 169.311 113.027 168.599 111.653C167.888 110.279 166.861 109.093 165.603 108.192L164.009 107.042C163.994 107.031 163.978 107.021 163.962 107.011C162.954 106.419 160.708 105.138 156.985 103.215C152.645 100.984 140.056 98.001 136.268 99.9387C135.356 100.405 135.08 101.063 135.008 101.532C134.696 103.586 136.822 104.245 140.439 105.099C137.542 105.102 135.837 105.486 134.936 106.276C134.712 106.463 134.531 106.697 134.404 106.96C134.278 107.223 134.209 107.511 134.202 107.803C134.122 110.225 138.367 111.089 144.307 111.714C141.03 112.906 138.119 114.209 138.362 116.086C138.392 116.41 138.49 116.723 138.65 117.006C138.81 117.29 139.027 117.536 139.288 117.729C140.654 118.729 143.142 118.277 145.336 117.877C145.699 117.812 146.051 117.747 146.384 117.693C150.829 116.962 152.866 119.311 155.022 121.798C155.673 122.582 156.374 123.324 157.121 124.018C158.233 125.002 159.762 125.495 161.331 125.495ZM163.333 108.026L164.905 109.161L164.907 109.162C166.012 109.954 166.915 110.996 167.54 112.204C168.166 113.411 168.496 114.749 168.506 116.109C168.515 117.469 168.202 118.811 167.592 120.027C166.983 121.242 166.095 122.297 165 123.103C162.926 124.686 159.684 124.693 157.914 123.125C157.206 122.465 156.542 121.761 155.926 121.015C153.755 118.512 151.295 115.674 146.191 116.515C145.853 116.57 145.493 116.635 145.124 116.703C143.263 117.041 140.946 117.462 139.995 116.766C139.865 116.667 139.757 116.542 139.68 116.398C139.603 116.255 139.558 116.096 139.548 115.933C139.52 115.718 139.652 115.118 141.478 114.185C142.848 113.486 144.711 112.831 146.355 112.253C146.655 112.147 146.951 112.043 147.237 111.941C147.365 111.895 147.474 111.807 147.545 111.691C147.617 111.576 147.646 111.439 147.629 111.304C147.612 111.169 147.549 111.044 147.452 110.949C147.354 110.855 147.227 110.797 147.091 110.784C144.555 110.552 141.399 110.264 139.016 109.743C135.835 109.046 135.383 108.253 135.397 107.842C135.399 107.713 135.43 107.587 135.487 107.471C135.543 107.356 135.625 107.254 135.725 107.174C137.189 105.89 142.771 106.277 146.843 106.679C146.991 106.694 147.14 106.652 147.26 106.563C147.379 106.473 147.461 106.342 147.488 106.195C147.515 106.048 147.487 105.897 147.408 105.77C147.329 105.643 147.206 105.55 147.062 105.51C145 104.934 143.22 104.521 141.651 104.156C137.745 103.247 136.025 102.799 136.19 101.711C136.218 101.529 136.312 101.258 136.813 101.002C139.938 99.404 151.926 101.957 156.438 104.276C160.104 106.171 162.324 107.434 163.333 108.026Z" fill="#212121"/>
<path d="M147.704 132.59L96.8049 131.521C85.8845 131.551 76.7287 145.083 80.3321 156.435L97.987 196.047L132.479 191.438L126.555 170.002L153.16 170.156" fill="white"/>
<path d="M97.9877 196.645C98.0143 196.645 98.0409 196.643 98.0673 196.64L132.559 192.031C132.643 192.02 132.725 191.99 132.797 191.945C132.869 191.9 132.931 191.84 132.978 191.769C133.025 191.697 133.056 191.617 133.069 191.533C133.083 191.449 133.078 191.363 133.055 191.28L127.343 170.605L153.158 170.754H153.162C153.32 170.754 153.472 170.692 153.585 170.58C153.697 170.468 153.76 170.317 153.761 170.158C153.761 170 153.699 169.848 153.587 169.736C153.475 169.624 153.324 169.56 153.165 169.56L126.561 169.406C126.468 169.407 126.378 169.428 126.295 169.468C126.212 169.509 126.14 169.568 126.083 169.64C126.027 169.713 125.988 169.799 125.971 169.889C125.953 169.98 125.957 170.073 125.981 170.162L131.721 190.938L98.3507 195.397L80.8919 156.223C79.1753 150.776 80.3857 144.463 84.1327 139.329C87.4674 134.759 92.0871 132.131 96.8074 132.118L147.692 133.188C147.85 133.191 148.003 133.131 148.118 133.022C148.232 132.912 148.298 132.761 148.301 132.603C148.305 132.445 148.245 132.292 148.135 132.177C148.026 132.063 147.875 131.997 147.717 131.994L96.8183 130.924C91.6994 130.938 86.7291 133.745 83.1679 138.625C79.1903 144.075 77.9178 150.801 79.7643 156.616C79.7711 156.638 79.779 156.659 79.788 156.679L97.4429 196.291C97.4899 196.396 97.5663 196.486 97.663 196.549C97.7596 196.611 97.8724 196.645 97.9877 196.645Z" fill="#212121"/>
<path d="M148.462 154.886L141.507 194.896L179.032 199.833L188.262 147.955C188.844 144.677 188.549 141.303 187.409 138.175C186.268 135.047 184.322 132.276 181.766 130.142C179.21 128.008 176.136 126.586 172.854 126.021C169.573 125.455 166.2 125.767 163.077 126.923L140.641 135.195" fill="white"/>
<path d="M179.032 200.43C179.173 200.429 179.308 200.38 179.416 200.29C179.523 200.2 179.595 200.075 179.62 199.937L188.849 148.059C189.45 144.677 189.146 141.197 187.97 137.971C186.793 134.744 184.785 131.885 182.149 129.683C179.512 127.482 176.341 126.015 172.956 125.432C169.571 124.848 166.092 125.169 162.87 126.362L140.435 134.634C140.361 134.66 140.292 134.701 140.234 134.755C140.176 134.808 140.128 134.872 140.095 134.943C140.061 135.015 140.042 135.092 140.039 135.171C140.036 135.25 140.048 135.329 140.075 135.403C140.103 135.477 140.144 135.545 140.198 135.603C140.252 135.661 140.317 135.707 140.389 135.74C140.46 135.773 140.538 135.791 140.617 135.793C140.696 135.795 140.775 135.782 140.849 135.754L163.284 127.482C166.309 126.363 169.575 126.061 172.753 126.608C175.931 127.156 178.908 128.532 181.383 130.599C183.858 132.666 185.744 135.35 186.848 138.379C187.953 141.408 188.238 144.675 187.674 147.85L178.545 199.166L142.202 194.385L149.049 154.988C149.064 154.91 149.062 154.83 149.046 154.753C149.029 154.676 148.997 154.603 148.952 154.538C148.907 154.474 148.849 154.419 148.783 154.376C148.716 154.334 148.642 154.305 148.564 154.291C148.487 154.278 148.407 154.28 148.33 154.297C148.253 154.315 148.18 154.347 148.116 154.393C148.052 154.439 147.997 154.497 147.955 154.564C147.914 154.631 147.886 154.705 147.873 154.783L140.918 194.793C140.905 194.873 140.907 194.954 140.925 195.032C140.944 195.11 140.978 195.184 141.026 195.249C141.073 195.314 141.134 195.368 141.203 195.409C141.272 195.45 141.349 195.477 141.429 195.487L178.955 200.424C178.981 200.428 179.007 200.43 179.032 200.43Z" fill="#212121"/>
<path d="M186.57 120.277C186.704 120.278 186.833 120.233 186.938 120.151C187.043 120.069 187.118 119.954 187.15 119.825C187.182 119.696 187.171 119.559 187.116 119.437C187.062 119.316 186.969 119.216 186.851 119.153L163.939 106.998C163.87 106.962 163.794 106.939 163.716 106.931C163.638 106.924 163.559 106.932 163.484 106.955C163.409 106.978 163.34 107.015 163.279 107.065C163.219 107.115 163.169 107.177 163.132 107.246C163.095 107.315 163.072 107.391 163.065 107.469C163.057 107.547 163.065 107.626 163.088 107.701C163.111 107.776 163.149 107.845 163.199 107.906C163.249 107.966 163.31 108.016 163.379 108.053L186.291 120.208C186.377 120.253 186.473 120.277 186.57 120.277Z" fill="#212121"/>
<path d="M117.744 116.535C117.873 116.535 117.999 116.493 118.102 116.416L127.276 109.501C127.402 109.405 127.486 109.264 127.508 109.107C127.53 108.95 127.489 108.791 127.393 108.664C127.298 108.538 127.156 108.455 127 108.433C126.843 108.411 126.683 108.452 126.557 108.547L117.383 115.462C117.283 115.537 117.209 115.642 117.171 115.762C117.134 115.882 117.135 116.01 117.175 116.129C117.215 116.248 117.291 116.352 117.393 116.425C117.495 116.498 117.618 116.537 117.743 116.537L117.744 116.535Z" fill="#212121"/>
<path d="M139.916 48.0652C139.483 45.7566 139.898 43.3692 141.084 41.342C142.271 39.3148 144.15 37.7842 146.376 37.0316C148.601 36.279 151.024 36.355 153.198 37.2457C155.371 38.1363 157.151 39.7818 158.208 41.8794C159.538 41.5736 160.92 41.5716 162.252 41.8734C163.583 42.1752 164.829 42.7731 165.897 43.6226C166.965 44.4721 167.828 45.5515 168.422 46.7804C169.015 48.0093 169.324 49.3561 169.326 50.7208C169.326 50.9692 169.315 51.2183 169.296 51.4611C170.29 52.9493 170.819 54.6999 170.814 56.4897C170.814 59.3427 169.512 61.3761 167.238 63.1123L167.118 63.2019C167.03 63.2684 166.924 63.3089 166.814 63.3189C166.703 63.3288 166.592 63.3078 166.493 63.2583C166.394 63.2087 166.311 63.1325 166.252 63.0382C166.194 62.9438 166.163 62.8352 166.163 62.7243C166.159 60.0378 166.148 56.5468 166.133 56.2396C166.127 56.1676 166.115 56.0939 166.103 56.0243C165.92 55.0222 165.347 54.1334 164.51 53.553C163.673 52.9726 162.639 52.7478 161.636 52.9279L157.258 53.7239C156.607 53.8428 155.95 53.9283 155.29 53.9802C154.815 54.02 154.323 54.0421 153.837 54.0439C153.719 54.046 153.601 54.046 153.485 54.0439C153.034 54.0395 152.587 54.0202 152.162 53.9865C151.504 53.9387 150.849 53.8571 150.2 53.742L145.366 52.8843C144.616 52.7519 143.844 52.8462 143.149 53.1553C142.468 53.456 141.889 53.948 141.483 54.5715C141.076 55.195 140.86 55.9232 140.86 56.6674L140.925 62.7092C140.927 62.8202 140.897 62.9294 140.84 63.0245C140.782 63.1195 140.699 63.1967 140.601 63.2473C140.502 63.2979 140.391 63.32 140.28 63.311C140.169 63.302 140.063 63.2623 139.974 63.1963L139.714 63.0041C137.461 61.2702 136.168 58.2499 136.168 55.411C136.167 53.9774 136.506 52.5638 137.157 51.2868C137.809 50.0097 138.754 48.9056 139.916 48.0652Z" fill="#6A9586"/>
<path d="M171.529 69.5295C171.664 69.5297 171.795 69.4841 171.901 69.4002C172.007 69.3163 172.081 69.1991 172.111 69.0677C172.142 68.9362 172.127 68.7983 172.069 68.6764C172.011 68.5545 171.914 68.4558 171.793 68.3964L169.459 67.2522L173.482 66.1577C173.634 66.1156 173.764 66.0149 173.842 65.8777C173.92 65.7404 173.94 65.5778 173.899 65.4254C173.857 65.2731 173.757 65.1433 173.62 65.0647C173.483 64.986 173.321 64.9648 173.168 65.0057L167.619 66.5161C167.502 66.548 167.397 66.6147 167.319 66.7075C167.241 66.8003 167.193 66.9146 167.181 67.0354C167.17 67.1561 167.195 67.2776 167.255 67.3834C167.314 67.4893 167.404 67.5747 167.513 67.6281L171.267 69.4688C171.349 69.5088 171.438 69.5296 171.529 69.5295Z" fill="#212121"/>
<path d="M135.734 69.5292C135.825 69.5291 135.915 69.5082 135.997 69.4681L139.751 67.6274C139.86 67.574 139.95 67.4887 140.009 67.3828C140.068 67.2769 140.094 67.1555 140.082 67.0348C140.071 66.914 140.023 66.7997 139.945 66.7069C139.866 66.6141 139.762 66.5473 139.645 66.5154L134.096 65.005C134.02 64.9835 133.94 64.9773 133.862 64.9867C133.783 64.9961 133.708 65.0209 133.639 65.0597C133.57 65.0985 133.51 65.1506 133.462 65.2129C133.413 65.2752 133.377 65.3465 133.357 65.4226C133.336 65.4987 133.331 65.5782 133.341 65.6565C133.351 65.7347 133.377 65.8102 133.416 65.8785C133.456 65.9468 133.508 66.0065 133.571 66.0543C133.634 66.1022 133.706 66.137 133.782 66.157L137.805 67.2515L135.471 68.3957C135.35 68.4551 135.252 68.5538 135.194 68.6757C135.136 68.7976 135.121 68.9356 135.152 69.067C135.183 69.1985 135.257 69.3157 135.363 69.3996C135.468 69.4834 135.599 69.529 135.734 69.5288V69.5292Z" fill="#212121"/>
<path d="M126.851 171.635C126.946 171.635 127.039 171.613 127.123 171.57C127.208 171.527 127.28 171.464 127.336 171.387C127.391 171.31 127.427 171.221 127.442 171.128C127.456 171.034 127.447 170.938 127.417 170.849L123.779 159.983C123.755 159.908 123.716 159.838 123.665 159.778C123.613 159.718 123.55 159.669 123.48 159.633C123.409 159.597 123.332 159.576 123.254 159.57C123.175 159.564 123.095 159.574 123.02 159.599C122.945 159.624 122.876 159.664 122.817 159.716C122.757 159.768 122.709 159.832 122.674 159.903C122.639 159.974 122.619 160.051 122.614 160.13C122.609 160.209 122.62 160.288 122.646 160.362L126.285 171.228C126.325 171.346 126.401 171.45 126.502 171.523C126.604 171.596 126.726 171.635 126.851 171.635Z" fill="#212121"/>
<path d="M160.085 65.5893C159.263 65.5893 158.597 64.9229 158.597 64.1008C158.597 63.2787 159.263 62.6123 160.085 62.6123C160.908 62.6123 161.574 63.2787 161.574 64.1008C161.574 64.9229 160.908 65.5893 160.085 65.5893Z" fill="#212121"/>
<path d="M146.899 65.5893C146.077 65.5893 145.41 64.9229 145.41 64.1008C145.41 63.2787 146.077 62.6123 146.899 62.6123C147.721 62.6123 148.388 63.2787 148.388 64.1008C148.388 64.9229 147.721 65.5893 146.899 65.5893Z" fill="#212121"/>
<path d="M148.132 76.2197C149.909 84.8144 158.782 82.0981 158.553 76.2197H148.132Z" fill="white"/>
<path d="M153.464 82.2888C153.669 82.2889 153.875 82.2765 154.078 82.2516C155.526 82.0546 156.848 81.3249 157.786 80.2052C158.724 79.0854 159.21 77.6561 159.15 76.1968C159.144 76.0425 159.079 75.8966 158.967 75.7896C158.856 75.6826 158.708 75.6229 158.553 75.623H148.131C148.043 75.623 147.955 75.6428 147.875 75.6808C147.795 75.7189 147.724 75.7743 147.668 75.843C147.612 75.9117 147.572 75.9921 147.551 76.0782C147.53 76.1643 147.528 76.254 147.546 76.3408C148.462 80.7651 151.178 82.2888 153.464 82.2888ZM157.947 76.8164C157.861 77.8757 157.417 78.8743 156.688 79.647C155.958 80.4198 154.987 80.9205 153.934 81.0664C152.081 81.2927 149.847 80.2704 148.889 76.817L157.947 76.8164Z" fill="#212121"/>
<path d="M144.09 76.67C144.138 76.7737 144.214 76.8616 144.31 76.9234C144.406 76.9851 144.517 77.018 144.631 77.0183H162.024C162.138 77.0184 162.249 76.9858 162.345 76.9245C162.441 76.8632 162.518 76.7757 162.566 76.6724C162.614 76.569 162.631 76.4541 162.616 76.3412C162.6 76.2283 162.553 76.1221 162.479 76.0352C162.324 75.8522 162.151 75.6631 161.964 75.4761C160.088 73.6083 157.55 72.5564 154.902 72.5488H151.753C150.314 72.5481 148.892 72.859 147.585 73.4602C146.278 74.0614 145.116 74.9385 144.18 76.0313C144.105 76.1178 144.057 76.2241 144.041 76.3374C144.025 76.4507 144.042 76.5662 144.09 76.67Z" fill="#6A9586"/>
<path d="M257.664 222.142C257.641 222.147 257.618 222.149 257.595 222.148L2.42527 214.079C2.30702 214.075 2.19245 213.998 2.10677 213.865C2.02109 213.731 1.97132 213.553 1.9684 213.367C1.96548 213.182 2.00966 213.006 2.09121 212.878C2.17277 212.75 2.28502 212.68 2.40327 212.684L257.573 220.753C257.686 220.756 257.795 220.825 257.88 220.947C257.964 221.069 258.018 221.235 258.029 221.411C258.04 221.586 258.009 221.759 257.941 221.895C257.874 222.031 257.774 222.119 257.664 222.142Z" fill="#212121"/>
<path d="M23.0898 78.7054C26.184 78.7054 28.6924 76.1873 28.6924 73.0812C28.6924 69.9751 26.184 67.457 23.0898 67.457C19.9956 67.457 17.4873 69.9751 17.4873 73.0812C17.4873 76.1873 19.9956 78.7054 23.0898 78.7054Z" fill="white"/>
<path d="M23.0897 79.2966C21.865 79.2966 20.6678 78.9321 19.6495 78.249C18.6312 77.566 17.8375 76.5951 17.3688 75.4593C16.9001 74.3234 16.7775 73.0736 17.0164 71.8677C17.2554 70.6619 17.8451 69.5543 18.7111 68.6849C19.5771 67.8156 20.6805 67.2236 21.8817 66.9837C23.0829 66.7438 24.3279 66.867 25.4594 67.3374C26.5909 67.8079 27.558 68.6047 28.2384 69.6269C28.9188 70.6492 29.282 71.851 29.282 73.0804C29.2802 74.7285 28.6272 76.3086 27.4663 77.4739C26.3054 78.6393 24.7315 79.2948 23.0897 79.2966ZM23.0897 68.0483C22.0983 68.0483 21.1291 68.3434 20.3048 68.8964C19.4804 69.4493 18.8379 70.2352 18.4585 71.1547C18.0791 72.0742 17.9798 73.086 18.1733 74.0622C18.3667 75.0383 18.8441 75.935 19.5452 76.6387C20.2462 77.3425 21.1394 77.8217 22.1118 78.0159C23.0842 78.2101 24.0921 78.1104 25.008 77.7296C25.924 77.3487 26.7069 76.7037 27.2577 75.8762C27.8085 75.0486 28.1025 74.0757 28.1025 73.0804C28.101 71.7463 27.5724 70.4672 26.6326 69.5239C25.6929 68.5805 24.4187 68.0498 23.0897 68.0483Z" fill="#212121"/>
<path d="M30.3633 89.9329C33.4574 89.9329 35.9658 87.4149 35.9658 84.3087C35.9658 81.2026 33.4574 78.6846 30.3633 78.6846C27.2691 78.6846 24.7607 81.2026 24.7607 84.3087C24.7607 87.4149 27.2691 89.9329 30.3633 89.9329Z" fill="white"/>
<path d="M30.3632 90.5252C29.1384 90.5252 27.9412 90.1606 26.9229 89.4775C25.9046 88.7945 25.1109 87.8237 24.6423 86.6878C24.1736 85.5519 24.051 84.3021 24.2899 83.0962C24.5288 81.8904 25.1186 80.7828 25.9846 79.9135C26.8506 79.0441 27.9539 78.4521 29.1551 78.2122C30.3563 77.9724 31.6014 78.0955 32.7328 78.566C33.8643 79.0364 34.8314 79.8332 35.5118 80.8554C36.1923 81.8777 36.5554 83.0795 36.5554 84.309C36.5536 85.957 35.9006 87.537 34.7397 88.7024C33.5788 89.8678 32.0049 90.5233 30.3632 90.5252ZM30.3632 79.2768C29.3717 79.2768 28.4026 79.5719 27.5782 80.1249C26.7539 80.6778 26.1114 81.4637 25.732 82.3832C25.3525 83.3028 25.2533 84.3145 25.4467 85.2907C25.6401 86.2668 26.1175 87.1635 26.8186 87.8672C27.5196 88.571 28.4128 89.0503 29.3852 89.2444C30.3576 89.4386 31.3655 89.3389 32.2815 88.9581C33.1974 88.5772 33.9803 87.9322 34.5311 87.1047C35.082 86.2771 35.3759 85.3042 35.3759 84.309C35.3744 82.9748 34.8458 81.6958 33.9061 80.7524C32.9663 79.809 31.6922 79.2783 30.3632 79.2768Z" fill="#212121"/>
<path d="M19.2764 91.5325C22.3705 91.5325 24.8789 89.0145 24.8789 85.9084C24.8789 82.8022 22.3705 80.2842 19.2764 80.2842C16.1822 80.2842 13.6738 82.8022 13.6738 85.9084C13.6738 89.0145 16.1822 91.5325 19.2764 91.5325Z" fill="white"/>
<path d="M19.2763 92.1238C18.0515 92.1238 16.8543 91.7592 15.836 91.0762C14.8177 90.3931 14.024 89.4223 13.5553 88.2864C13.0867 87.1506 12.964 85.9007 13.203 84.6949C13.4419 83.4891 14.0317 82.3814 14.8977 81.5121C15.7637 80.6427 16.867 80.0507 18.0682 79.8109C19.2694 79.571 20.5144 79.6941 21.6459 80.1646C22.7774 80.6351 23.7445 81.4318 24.4249 82.4541C25.1053 83.4763 25.4685 84.6782 25.4685 85.9076C25.4667 87.5557 24.8137 89.1357 23.6528 90.3011C22.4919 91.4665 20.918 92.122 19.2763 92.1238ZM19.2763 80.8754C18.2848 80.8754 17.3156 81.1706 16.4913 81.7235C15.6669 82.2765 15.0244 83.0624 14.645 83.9819C14.2656 84.9014 14.1664 85.9132 14.3598 86.8893C14.5532 87.8655 15.0306 88.7621 15.7317 89.4659C16.4327 90.1696 17.3259 90.6489 18.2983 90.8431C19.2707 91.0372 20.2786 90.9376 21.1946 90.5567C22.1105 90.1758 22.8934 89.5309 23.4442 88.7033C23.995 87.8758 24.289 86.9029 24.289 85.9076C24.2875 84.5735 23.7589 83.2944 22.8192 82.351C21.8794 81.4076 20.6053 80.877 19.2763 80.8754Z" fill="#212121"/>
<path d="M32.1318 102.306C35.226 102.306 37.7343 99.7879 37.7343 96.6818C37.7343 93.5756 35.226 91.0576 32.1318 91.0576C29.0376 91.0576 26.5293 93.5756 26.5293 96.6818C26.5293 99.7879 29.0376 102.306 32.1318 102.306Z" fill="white"/>
<path d="M32.1317 102.898C30.907 102.898 29.7098 102.534 28.6915 101.851C27.6732 101.168 26.8795 100.197 26.4108 99.0609C25.9421 97.925 25.8195 96.6751 26.0584 95.4693C26.2974 94.2635 26.8871 93.1559 27.7531 92.2865C28.6191 91.4172 29.7225 90.8251 30.9237 90.5853C32.1248 90.3454 33.3699 90.4685 34.5014 90.939C35.6329 91.4095 36.6 92.2062 37.2804 93.2285C37.9608 94.2507 38.324 95.4526 38.324 96.682C38.3221 98.3301 37.6691 99.9101 36.5082 101.075C35.3474 102.241 33.7734 102.896 32.1317 102.898ZM32.1317 91.6499C31.1403 91.6499 30.1711 91.945 29.3468 92.4979C28.5224 93.0509 27.8799 93.8368 27.5005 94.7563C27.1211 95.6758 27.0218 96.6876 27.2153 97.6637C27.4087 98.6399 27.8861 99.5365 28.5871 100.24C29.2882 100.944 30.1814 101.423 31.1538 101.617C32.1262 101.812 33.1341 101.712 34.05 101.331C34.966 100.95 35.7489 100.305 36.2997 99.4777C36.8505 98.6502 37.1445 97.6773 37.1445 96.682C37.143 95.3479 36.6144 94.0688 35.6746 93.1254C34.7349 92.182 33.4607 91.6514 32.1317 91.6499Z" fill="#212121"/>
<path d="M21.0449 103.905C24.1391 103.905 26.6474 101.387 26.6474 98.2804C26.6474 95.1743 24.1391 92.6562 21.0449 92.6562C17.9507 92.6562 15.4424 95.1743 15.4424 98.2804C15.4424 101.387 17.9507 103.905 21.0449 103.905Z" fill="white"/>
<path d="M21.0448 104.497C19.8201 104.497 18.6229 104.132 17.6046 103.449C16.5863 102.766 15.7926 101.795 15.3239 100.659C14.8552 99.5236 14.7326 98.2738 14.9715 97.0679C15.2105 95.8621 15.8002 94.7545 16.6662 93.8851C17.5322 93.0158 18.6356 92.4238 19.8368 92.1839C21.0379 91.944 22.283 92.0671 23.4145 92.5376C24.546 93.0081 25.5131 93.8049 26.1935 94.8271C26.8739 95.8494 27.2371 97.0512 27.2371 98.2807C27.2352 99.9287 26.5822 101.509 25.4213 102.674C24.2605 103.839 22.6865 104.495 21.0448 104.497ZM21.0448 93.2485C20.0534 93.2485 19.0842 93.5436 18.2599 94.0966C17.4355 94.6495 16.793 95.4354 16.4136 96.3549C16.0342 97.2744 15.9349 98.2862 16.1283 99.2624C16.3218 100.239 16.7992 101.135 17.5002 101.839C18.2013 102.543 19.0945 103.022 20.0669 103.216C21.0392 103.41 22.0471 103.311 22.9631 102.93C23.8791 102.549 24.662 101.904 25.2128 101.076C25.7636 100.249 26.0576 99.2759 26.0576 98.2807C26.0561 96.9465 25.5275 95.6674 24.5877 94.7241C23.648 93.7807 22.3738 93.25 21.0448 93.2485Z" fill="#212121"/>
<path d="M6.65559 103.49C9.10923 103.49 11.0983 101.493 11.0983 99.0302C11.0983 96.5671 9.10923 94.5703 6.65559 94.5703C4.20196 94.5703 2.21289 96.5671 2.21289 99.0302C2.21289 101.493 4.20196 103.49 6.65559 103.49Z" fill="white"/>
<path d="M6.65549 104.082C5.66017 104.082 4.6872 103.786 3.85962 103.231C3.03203 102.676 2.38701 101.887 2.00612 100.964C1.62523 100.041 1.52557 99.0248 1.71975 98.0448C1.91392 97.0649 2.39322 96.1647 3.09702 95.4582C3.80082 94.7517 4.69751 94.2705 5.67371 94.0756C6.64991 93.8807 7.66176 93.9807 8.58132 94.3631C9.50088 94.7454 10.2868 95.3929 10.8398 96.2237C11.3928 97.0545 11.6879 98.0312 11.6879 99.0304C11.6864 100.37 11.1557 101.654 10.2123 102.601C9.26886 103.548 7.98971 104.081 6.65549 104.082ZM6.65549 95.1626C5.89345 95.1626 5.14851 95.3894 4.5149 95.8144C3.88128 96.2394 3.38744 96.8435 3.09582 97.5502C2.80419 98.257 2.72789 99.0347 2.87656 99.785C3.02523 100.535 3.39219 101.224 3.93103 101.765C4.46988 102.306 5.15641 102.675 5.90381 102.824C6.65121 102.973 7.42592 102.897 8.12995 102.604C8.83399 102.311 9.43574 101.815 9.85911 101.179C10.2825 100.543 10.5085 99.7954 10.5085 99.0304C10.5074 98.0049 10.1011 97.0218 9.37874 96.2966C8.6564 95.5715 7.67702 95.1637 6.65549 95.1626Z" fill="#212121"/>
<path d="M22.5238 135.992C22.4091 135.992 22.2969 135.959 22.2009 135.896C22.1049 135.832 22.0293 135.743 21.9834 135.637L6.11493 99.2674C6.05219 99.1234 6.04897 98.9604 6.10598 98.8141C6.16299 98.6678 6.27557 98.5502 6.41894 98.4872C6.56232 98.4242 6.72475 98.421 6.87049 98.4782C7.01624 98.5354 7.13337 98.6484 7.19612 98.7924L23.0646 135.162C23.1038 135.252 23.12 135.351 23.1118 135.448C23.1036 135.546 23.0712 135.641 23.0177 135.723C22.9641 135.805 22.891 135.873 22.8049 135.919C22.7188 135.966 22.6225 135.991 22.5246 135.991L22.5238 135.992Z" fill="#212121"/>
<path d="M32.0122 135.992C31.8705 135.992 31.7335 135.941 31.6265 135.848C31.5194 135.754 31.4493 135.626 31.4292 135.485L22.5056 73.1649C22.4841 73.0098 22.5247 72.8525 22.6184 72.7274C22.7122 72.6022 22.8515 72.5195 23.0059 72.4972C23.1603 72.475 23.3172 72.515 23.4422 72.6086C23.5673 72.7022 23.6503 72.8417 23.6731 72.9965L32.5967 135.316C32.6078 135.393 32.6037 135.472 32.5846 135.547C32.5654 135.623 32.5317 135.694 32.4853 135.756C32.4388 135.818 32.3806 135.871 32.314 135.91C32.2473 135.95 32.1735 135.976 32.0968 135.987C32.0687 135.991 32.0405 135.993 32.0122 135.992Z" fill="#212121"/>
<path d="M32.7436 135.993C32.6573 135.992 32.572 135.973 32.4938 135.937C32.4156 135.9 32.3463 135.846 32.2909 135.78C32.2355 135.713 32.1953 135.636 32.1731 135.552C32.151 135.468 32.1473 135.38 32.1625 135.295L44.0542 69.3639C44.0869 69.2141 44.1761 69.0829 44.3032 68.9979C44.4303 68.9128 44.5852 68.8806 44.7355 68.9079C44.8858 68.9353 45.0196 69.02 45.1089 69.1444C45.1981 69.2688 45.2358 69.4231 45.2141 69.5748L33.3233 135.506C33.2988 135.642 33.2273 135.766 33.1214 135.855C33.0154 135.944 32.8818 135.992 32.7436 135.993Z" fill="#212121"/>
<path d="M56.5077 55.3003C55.9681 55.0839 55.3649 55.0912 54.8306 55.3206C54.2963 55.5499 53.8743 55.9826 53.6573 56.5238C53.8737 55.9821 53.8668 55.3763 53.6383 54.8397C53.4097 54.3031 52.9781 53.8796 52.4385 53.6624C51.8989 53.4452 51.2955 53.4521 50.7609 53.6815C50.2264 53.911 49.8045 54.3442 49.5881 54.8859L45.4206 65.2462L45.1258 54.0768C45.121 53.7867 45.0592 53.5004 44.9438 53.2344C44.8284 52.9684 44.6618 52.7279 44.4535 52.5268C44.2452 52.3257 43.9993 52.1679 43.73 52.0625C43.4608 51.9571 43.1734 51.9062 42.8845 51.9127C42.5955 51.9192 42.3107 51.983 42.0464 52.1004C41.7821 52.2178 41.5436 52.3865 41.3444 52.5968C41.1453 52.8071 40.9896 53.0548 40.8862 53.3257C40.7828 53.5967 40.7338 53.8855 40.742 54.1755C40.7373 53.8854 40.6754 53.5991 40.5601 53.3331C40.4447 53.0671 40.278 52.8266 40.0697 52.6255C39.8614 52.4243 39.6156 52.2665 39.3463 52.1611C39.077 52.0557 38.7897 52.0048 38.5007 52.0113C38.2118 52.0178 37.927 52.0816 37.6627 52.199C37.3984 52.3164 37.1598 52.4851 36.9607 52.6954C36.7616 52.9057 36.6059 53.1535 36.5025 53.4244C36.3991 53.6953 36.3501 53.9841 36.3583 54.2741L36.3976 55.7345L36.6335 65.6409C36.6697 67.355 37.2019 69.0214 38.1653 70.4371C39.1287 71.8527 40.4817 72.9564 42.0591 73.6134L42.0395 73.6331C42.6181 73.8611 43.2171 74.0329 43.8283 74.1462C44.4377 74.2592 45.0566 74.312 45.6762 74.3041V74.2844C47.3823 74.2185 49.0329 73.6579 50.4283 72.6703C51.8238 71.6827 52.9044 70.3104 53.5394 68.7194L57.2154 59.5234L57.7659 58.1617C57.9649 57.614 57.9451 57.0102 57.7106 56.4768C57.4761 55.9434 57.045 55.5218 56.5077 55.3003Z" fill="#6A9586"/>
<path d="M40.9194 63.2527C40.7656 63.2527 40.6177 63.1924 40.5076 63.0846C40.3974 62.9767 40.3335 62.8299 40.3297 62.6755L40.1135 54.0123C40.1096 53.8553 40.1679 53.7031 40.2758 53.5893C40.3836 53.4755 40.5321 53.4094 40.6885 53.4055C40.8449 53.4015 40.9964 53.4601 41.1098 53.5684C41.2231 53.6766 41.289 53.8257 41.2929 53.9827L41.5092 62.6459C41.5111 62.7236 41.4978 62.801 41.47 62.8735C41.4422 62.9461 41.4004 63.0125 41.347 63.0688C41.2936 63.1252 41.2297 63.1704 41.1589 63.202C41.0881 63.2335 41.0118 63.2507 40.9344 63.2527H40.9194Z" fill="#212121"/>
<path d="M50.4921 65.0092C50.3956 65.0092 50.3006 64.9854 50.2154 64.94C50.1302 64.8946 50.0574 64.8288 50.0034 64.7486C49.9494 64.6683 49.9158 64.576 49.9056 64.4797C49.8955 64.3834 49.909 64.286 49.945 64.1962L53.1689 56.1447C53.2272 55.999 53.3408 55.8825 53.4847 55.8209C53.556 55.7904 53.6325 55.7743 53.71 55.7735C53.7874 55.7727 53.8643 55.7872 53.9361 55.8162C54.008 55.8452 54.0735 55.8881 54.1288 55.9425C54.1842 55.9969 54.2283 56.0617 54.2587 56.1332C54.2891 56.2047 54.3052 56.2816 54.306 56.3593C54.3068 56.4371 54.2923 56.5142 54.2634 56.5864L51.0395 64.6378C50.9957 64.7475 50.9201 64.8415 50.8225 64.9077C50.7249 64.9739 50.6098 65.0092 50.4921 65.0092Z" fill="#212121"/>
<path d="M26.4708 216.823L18.352 208.673C17.2863 207.604 16.4408 206.335 15.864 204.938C15.2871 203.542 14.9902 202.044 14.9902 200.532C14.9902 199.02 15.2871 197.523 15.864 196.126C16.4408 194.729 17.2863 193.461 18.352 192.392C19.4177 191.324 20.2632 190.055 20.84 188.658C21.4169 187.261 21.7138 185.764 21.7138 184.252C21.7138 182.74 21.4169 181.242 20.84 179.846C20.2632 178.449 19.4177 177.18 18.352 176.112C17.2863 175.043 16.4408 173.774 15.864 172.377C15.2871 170.981 14.9902 169.483 14.9902 167.971C14.9902 166.459 15.2871 164.962 15.864 163.565C16.4408 162.168 17.2863 160.9 18.352 159.831C19.4177 158.763 20.2632 157.494 20.84 156.097C21.4169 154.7 21.7138 153.203 21.7138 151.691C21.7138 150.179 21.4169 148.681 20.84 147.285C20.2632 145.888 19.4177 144.619 18.352 143.551C17.2838 142.482 16.4368 141.212 15.8598 139.813C15.2829 138.414 14.9875 136.914 14.9905 135.4H50.0996C50.1009 136.914 49.8046 138.413 49.2277 139.812C48.6509 141.21 47.8049 142.481 46.7381 143.551C45.6724 144.619 44.8269 145.888 44.2501 147.285C43.6733 148.681 43.3763 150.179 43.3763 151.691C43.3763 153.203 43.6733 154.7 44.2501 156.097C44.8269 157.494 45.6724 158.763 46.7381 159.831C47.8039 160.9 48.6493 162.168 49.2262 163.565C49.803 164.962 50.0999 166.459 50.0999 167.971C50.0999 169.483 49.803 170.981 49.2262 172.377C48.6493 173.774 47.8039 175.043 46.7381 176.112C45.6724 177.18 44.8269 178.449 44.2501 179.846C43.6733 181.242 43.3763 182.74 43.3763 184.252C43.3763 185.764 43.6733 187.261 44.2501 188.658C44.8269 190.055 45.6724 191.324 46.7381 192.392C47.8039 193.461 48.6493 194.729 49.2262 196.126C49.803 197.523 50.0999 199.02 50.0999 200.532C50.0999 202.044 49.803 203.542 49.2262 204.938C48.6493 206.335 47.8039 207.604 46.7381 208.673L38.6194 216.823H26.4708Z" fill="white"/>
<path d="M38.6192 217.415H26.4705C26.3141 217.415 26.1642 217.352 26.0536 217.241L17.9348 209.091C16.8144 207.968 15.9255 206.634 15.319 205.165C14.7125 203.696 14.4004 202.122 14.4004 200.532C14.4004 198.943 14.7125 197.368 15.319 195.9C15.9255 194.431 16.8144 193.097 17.9348 191.974C19.9718 189.924 21.1158 187.147 21.1158 184.252C21.1158 181.357 19.9718 178.58 17.9348 176.53C16.8144 175.407 15.9255 174.073 15.319 172.604C14.7125 171.135 14.4004 169.561 14.4004 167.971C14.4004 166.382 14.7125 164.808 15.319 163.339C15.9255 161.87 16.8144 160.536 17.9348 159.413C18.9458 158.399 19.7479 157.195 20.2951 155.87C20.8423 154.546 21.124 153.125 21.124 151.691C21.124 150.257 20.8423 148.836 20.2951 147.511C19.7479 146.186 18.9458 144.983 17.9348 143.969C16.8106 142.847 15.9193 141.511 15.3127 140.04C14.706 138.57 14.396 136.993 14.4005 135.401C14.4005 135.244 14.4627 135.093 14.5733 134.982C14.6839 134.871 14.8339 134.809 14.9903 134.809H50.0994C50.2558 134.809 50.4058 134.871 50.5164 134.982C50.627 135.093 50.6892 135.244 50.6892 135.401C50.6937 136.992 50.3837 138.569 49.777 140.04C49.1704 141.511 48.2792 142.847 47.1551 143.969C45.1181 146.019 43.9741 148.796 43.9741 151.691C43.9741 154.586 45.1181 157.363 47.1551 159.413C48.2755 160.536 49.1644 161.87 49.7709 163.339C50.3773 164.808 50.6895 166.382 50.6895 167.971C50.6895 169.561 50.3773 171.135 49.7709 172.604C49.1644 174.073 48.2755 175.407 47.1551 176.53C45.1181 178.58 43.9741 181.357 43.9741 184.252C43.9741 187.147 45.1181 189.924 47.1551 191.974C48.2755 193.097 49.1644 194.431 49.7709 195.9C50.3773 197.368 50.6895 198.943 50.6895 200.532C50.6895 202.122 50.3773 203.696 49.7709 205.165C49.1644 206.634 48.2755 207.968 47.1551 209.091L39.0363 217.241C38.9815 217.296 38.9165 217.34 38.8449 217.37C38.7734 217.4 38.6966 217.415 38.6192 217.415ZM26.7149 216.231H38.3748L46.321 208.254C47.332 207.241 48.134 206.037 48.6812 204.712C49.2284 203.387 49.5101 201.967 49.5101 200.532C49.5101 199.098 49.2284 197.678 48.6812 196.353C48.134 195.028 47.332 193.824 46.321 192.811C44.0631 190.539 42.7951 187.461 42.7951 184.252C42.7951 181.043 44.0631 177.965 46.321 175.693C47.332 174.68 48.134 173.476 48.6812 172.151C49.2284 170.826 49.5101 169.406 49.5101 167.971C49.5101 166.537 49.2284 165.117 48.6812 163.792C48.134 162.467 47.332 161.263 46.321 160.25C44.0631 157.978 42.7951 154.9 42.7951 151.691C42.7951 148.482 44.0631 145.404 46.321 143.132C48.2253 141.231 49.3565 138.686 49.4942 135.993H15.5955C15.7331 138.686 16.8643 141.231 18.7687 143.132C21.0266 145.404 22.2946 148.482 22.2946 151.691C22.2946 154.9 21.0266 157.978 18.7687 160.25C17.7577 161.263 16.9557 162.467 16.4085 163.792C15.8613 165.117 15.5796 166.537 15.5796 167.971C15.5796 169.406 15.8613 170.826 16.4085 172.151C16.9557 173.476 17.7577 174.68 18.7687 175.693C21.0266 177.965 22.2946 181.043 22.2946 184.252C22.2946 187.461 21.0266 190.539 18.7687 192.811C17.7577 193.824 16.9557 195.028 16.4085 196.353C15.8613 197.678 15.5796 199.098 15.5796 200.532C15.5796 201.967 15.8613 203.387 16.4085 204.712C16.9557 206.037 17.7577 207.241 18.7687 208.254L26.7149 216.231Z" fill="#212121"/>
<path d="M235.678 183.143C235.576 183.143 235.476 183.118 235.387 183.07C235.297 183.022 235.221 182.953 235.164 182.868C235.108 182.784 235.073 182.687 235.063 182.586C235.053 182.485 235.068 182.383 235.106 182.289L242.008 165.527C242.07 165.376 242.19 165.255 242.342 165.192C242.493 165.129 242.663 165.129 242.815 165.191C242.967 165.254 243.087 165.374 243.15 165.525C243.213 165.677 243.214 165.847 243.151 165.999L236.25 182.76C236.203 182.873 236.124 182.97 236.022 183.038C235.92 183.107 235.8 183.143 235.678 183.143Z" fill="#212121"/>
<path d="M232.497 192.194C232.333 192.194 232.176 192.129 232.06 192.013C231.944 191.897 231.879 191.74 231.879 191.576V147.215C231.879 147.051 231.944 146.894 232.06 146.778C232.176 146.662 232.333 146.597 232.497 146.597C232.661 146.597 232.818 146.662 232.934 146.778C233.05 146.894 233.115 147.051 233.115 147.215V191.576C233.115 191.74 233.05 191.897 232.934 192.013C232.818 192.129 232.661 192.194 232.497 192.194Z" fill="#212121"/>
<path d="M241.201 125.96C240.916 125.96 240.633 126.016 240.369 126.125C240.105 126.234 239.865 126.394 239.663 126.596C239.461 126.797 239.301 127.037 239.191 127.301C239.082 127.564 239.025 127.847 239.025 128.133V128.135C239.025 127.849 238.969 127.566 238.859 127.302C238.75 127.039 238.59 126.799 238.388 126.597C238.186 126.395 237.946 126.235 237.682 126.125C237.419 126.016 237.136 125.96 236.85 125.96H236.848C236.272 125.96 235.719 126.189 235.311 126.597C234.903 127.005 234.674 127.558 234.674 128.135C234.674 127.558 234.445 127.005 234.037 126.597C233.629 126.189 233.076 125.96 232.499 125.96H232.498C232.212 125.96 231.929 126.016 231.665 126.125C231.401 126.234 231.161 126.394 230.959 126.596C230.757 126.797 230.597 127.037 230.487 127.301C230.378 127.564 230.321 127.847 230.321 128.133V128.135C230.321 127.559 230.092 127.006 229.686 126.598C229.279 126.191 228.727 125.961 228.151 125.96C227.574 125.956 227.019 126.182 226.609 126.587C226.199 126.992 225.966 127.544 225.962 128.121V128.135C225.962 127.849 225.906 127.566 225.797 127.302C225.687 127.039 225.527 126.799 225.325 126.597C225.123 126.395 224.884 126.235 224.62 126.126C224.356 126.016 224.073 125.96 223.788 125.96C223.211 125.96 222.658 126.188 222.25 126.596C221.841 127.003 221.612 127.556 221.611 128.133V137.241C221.611 138.67 221.892 140.084 222.439 141.404C222.985 142.724 223.786 143.924 224.796 144.934C225.806 145.945 227.005 146.746 228.325 147.293C229.645 147.84 231.059 148.122 232.488 148.122H232.492C233.92 148.122 235.335 147.84 236.655 147.294C237.975 146.747 239.175 145.945 240.185 144.935C241.195 143.925 241.997 142.725 242.543 141.405C243.09 140.085 243.372 138.67 243.372 137.241V128.135C243.372 127.559 243.143 127.006 242.736 126.598C242.329 126.191 241.777 125.961 241.201 125.96Z" fill="#6A9586"/>
<path d="M239.025 137.135C238.861 137.135 238.703 137.07 238.587 136.954C238.471 136.838 238.406 136.68 238.406 136.516V127.961C238.406 127.797 238.471 127.64 238.587 127.524C238.703 127.408 238.861 127.343 239.025 127.343C239.189 127.343 239.346 127.408 239.462 127.524C239.578 127.64 239.643 127.797 239.643 127.961V136.516C239.643 136.68 239.578 136.838 239.462 136.954C239.346 137.07 239.189 137.135 239.025 137.135Z" fill="#212121"/>
<path d="M234.672 137.135C234.508 137.135 234.351 137.07 234.235 136.954C234.119 136.838 234.054 136.68 234.054 136.516V127.961C234.054 127.797 234.119 127.64 234.235 127.524C234.351 127.408 234.508 127.343 234.672 127.343C234.836 127.343 234.993 127.408 235.109 127.524C235.225 127.64 235.29 127.797 235.29 127.961V136.516C235.29 136.68 235.225 136.838 235.109 136.954C234.993 137.07 234.836 137.135 234.672 137.135Z" fill="#212121"/>
<path d="M230.321 137.135C230.157 137.135 230 137.07 229.884 136.954C229.768 136.838 229.703 136.68 229.703 136.516V127.961C229.703 127.797 229.768 127.64 229.884 127.524C230 127.408 230.157 127.343 230.321 127.343C230.485 127.343 230.643 127.408 230.759 127.524C230.875 127.64 230.94 127.797 230.94 127.961V136.516C230.94 136.68 230.875 136.838 230.759 136.954C230.643 137.07 230.485 137.135 230.321 137.135Z" fill="#212121"/>
<path d="M225.968 137.135C225.804 137.135 225.647 137.07 225.531 136.954C225.415 136.838 225.35 136.68 225.35 136.516V127.961C225.35 127.797 225.415 127.64 225.531 127.524C225.647 127.408 225.804 127.343 225.968 127.343C226.132 127.343 226.289 127.408 226.405 127.524C226.521 127.64 226.586 127.797 226.586 127.961V136.516C226.586 136.68 226.521 136.838 226.405 136.954C226.289 137.07 226.132 137.135 225.968 137.135Z" fill="#212121"/>
<path d="M226.468 217.131C223.23 217.135 220.594 214.412 220.591 211.174C220.59 210.18 220.842 209.202 221.323 208.332L232.423 190.461L243.526 208.332C244.278 209.694 244.458 211.298 244.027 212.792C243.596 214.287 242.589 215.548 241.227 216.3C240.369 216.809 239.398 217.095 238.401 217.131H226.468Z" fill="white"/>
<path d="M226.462 217.75C225.328 217.737 224.217 217.432 223.237 216.862C222.257 216.293 221.441 215.479 220.869 214.5C220.297 213.522 219.989 212.411 219.973 211.278C219.958 210.145 220.236 209.026 220.782 208.033C220.787 208.023 220.792 208.014 220.798 208.005L231.898 190.134C231.954 190.045 232.031 189.971 232.123 189.92C232.215 189.869 232.319 189.842 232.424 189.842C232.529 189.842 232.633 189.869 232.725 189.92C232.817 189.971 232.894 190.045 232.95 190.134L244.053 208.005C244.058 208.015 244.064 208.024 244.069 208.033C244.898 209.538 245.096 211.311 244.619 212.963C244.143 214.614 243.031 216.009 241.527 216.841C240.437 217.443 239.386 217.748 238.402 217.75H226.462ZM221.857 208.644C221.432 209.42 221.209 210.29 221.209 211.174C221.211 212.583 221.767 213.934 222.758 214.935C223.238 215.433 223.814 215.829 224.45 216.1C225.086 216.371 225.77 216.512 226.462 216.513H238.401C239.172 216.513 240.023 216.258 240.929 215.759C242.143 215.086 243.042 213.961 243.429 212.627C243.815 211.294 243.659 209.862 242.993 208.644L232.424 191.633L221.857 208.644Z" fill="#212121"/>
<path d="M239.444 181.2L232.428 190.461L225.412 181.2H239.444Z" fill="white"/>
<path d="M232.428 191.08C232.333 191.08 232.238 191.058 232.153 191.015C232.067 190.973 231.993 190.911 231.935 190.835L224.919 181.573C224.85 181.481 224.807 181.372 224.797 181.257C224.786 181.142 224.807 181.027 224.859 180.924C224.91 180.821 224.989 180.734 225.087 180.674C225.184 180.613 225.297 180.581 225.412 180.581H239.444C239.559 180.581 239.672 180.613 239.77 180.674C239.868 180.734 239.946 180.821 239.998 180.924C240.049 181.027 240.07 181.143 240.06 181.257C240.049 181.372 240.006 181.481 239.937 181.573L232.921 190.834C232.863 190.91 232.789 190.972 232.703 191.015C232.618 191.057 232.524 191.08 232.428 191.08ZM226.657 181.819L232.428 189.437L238.199 181.819H226.657Z" fill="#212121"/>
<path d="M251.837 162.482C253.929 158.789 252.633 154.099 248.94 152.006C245.248 149.913 240.558 151.21 238.466 154.903C236.373 158.595 237.67 163.285 241.362 165.378C245.054 167.471 249.744 166.174 251.837 162.482Z" fill="#757575"/>
<path d="M247.713 161.089C246.522 161.09 245.345 160.826 244.269 160.316C242.871 159.652 241.691 158.605 240.864 157.296C240.037 155.988 239.597 154.473 239.597 152.925C239.597 152.761 239.663 152.605 239.779 152.489C239.894 152.373 240.051 152.309 240.215 152.309H240.217C240.298 152.309 240.379 152.325 240.454 152.357C240.529 152.388 240.597 152.434 240.654 152.491C240.711 152.549 240.756 152.617 240.787 152.692C240.818 152.768 240.834 152.848 240.833 152.929C240.834 154.242 241.208 155.528 241.909 156.638C242.611 157.747 243.613 158.635 244.799 159.199C245.983 159.756 247.301 159.963 248.598 159.796C249.896 159.629 251.118 159.095 252.122 158.257C252.184 158.202 252.257 158.16 252.335 158.133C252.413 158.107 252.496 158.096 252.579 158.102C252.661 158.108 252.742 158.131 252.816 158.169C252.889 158.207 252.955 158.259 253.008 158.322C253.061 158.386 253.101 158.459 253.125 158.538C253.149 158.618 253.157 158.701 253.148 158.783C253.14 158.865 253.115 158.945 253.075 159.018C253.035 159.09 252.981 159.154 252.916 159.205C251.456 160.423 249.614 161.09 247.713 161.089Z" fill="#212121"/>
<path d="M247.648 161.095C247.558 161.095 247.469 161.076 247.388 161.038C247.306 161 247.234 160.945 247.176 160.876C246.172 159.69 245.532 158.239 245.332 156.697C245.132 155.156 245.38 153.59 246.047 152.186C246.215 151.832 246.407 151.49 246.623 151.163C246.666 151.093 246.723 151.032 246.791 150.984C246.858 150.936 246.935 150.902 247.015 150.885C247.096 150.867 247.18 150.865 247.261 150.88C247.342 150.895 247.42 150.927 247.489 150.972C247.558 151.018 247.617 151.077 247.663 151.145C247.709 151.214 247.74 151.291 247.756 151.373C247.771 151.454 247.77 151.537 247.753 151.618C247.736 151.699 247.702 151.776 247.655 151.843C247.471 152.122 247.307 152.414 247.164 152.716C246.599 153.904 246.389 155.231 246.558 156.536C246.727 157.841 247.269 159.07 248.119 160.075C248.195 160.165 248.244 160.275 248.26 160.392C248.276 160.509 248.258 160.628 248.209 160.735C248.159 160.842 248.08 160.933 247.981 160.996C247.881 161.06 247.766 161.094 247.648 161.094V161.095Z" fill="#212121"/>
<path d="M96.5925 46.98C109.403 46.98 119.788 36.5952 119.788 23.7849C119.788 10.9746 109.403 0.589844 96.5925 0.589844C83.7823 0.589844 73.3975 10.9746 73.3975 23.7849C73.3975 36.5952 83.7823 46.98 96.5925 46.98Z" fill="white"/>
<path d="M96.5926 47.57C83.4774 47.57 72.8076 36.9002 72.8076 23.785C72.8076 10.6698 83.4774 0 96.5926 0C109.708 0 120.378 10.6698 120.378 23.785C120.378 36.9002 109.708 47.57 96.5926 47.57ZM96.5926 1.17981C84.1281 1.17981 73.9874 11.3205 73.9874 23.785C73.9874 36.2495 84.1281 46.3902 96.5926 46.3902C109.057 46.3902 119.198 36.2495 119.198 23.785C119.198 11.3205 109.057 1.17981 96.5926 1.17981Z" fill="#212121"/>
<path d="M96.5926 24.3749C96.5049 24.3749 96.4167 24.3555 96.3349 24.3155C96.1317 24.2168 96.0029 24.0108 96.0029 23.785V8.28034C96.0029 7.95451 96.267 7.69043 96.5928 7.69043C96.9187 7.69043 97.1827 7.95451 97.1827 8.28034V22.5716L105.824 15.7841C106.08 15.583 106.451 15.6274 106.653 15.8836C106.854 16.1398 106.809 16.5107 106.553 16.7119L96.9572 24.2489C96.8512 24.3323 96.7226 24.3749 96.5926 24.3749Z" fill="#212121"/>
</svg>
