<svg width="25" height="25" viewBox="0 0 25 25" fill="none" xmlns="http://www.w3.org/2000/svg">
<path d="M23.4375 18.2292C23.4375 19.3797 22.5047 20.3125 21.3542 20.3125H3.64583C2.49531 20.3125 1.5625 19.3797 1.5625 18.2292V6.77083C1.5625 5.62031 2.49531 4.6875 3.64583 4.6875H21.3542C22.5047 4.6875 23.4375 5.62031 23.4375 6.77083V18.2292Z" fill="#1565C0"/>
<path d="M7.9095 9.89505L6.5418 13.9742C6.5418 13.9742 6.1944 12.2487 6.16003 12.032C5.38138 10.2555 4.23242 10.3544 4.23242 10.3544L5.58659 15.6242V15.6232H7.23294L9.5095 9.89505H7.9095ZM9.21315 15.6242H10.7085L11.6126 9.89505H10.0986L9.21315 15.6242ZM19.796 9.89505H18.2225L15.7694 15.6242H17.2548L17.5611 14.806H19.434L19.5934 15.6242H20.9543L19.796 9.89505ZM17.9757 13.7117L18.7897 11.5466L19.2158 13.7117H17.9757ZM13.734 11.5648C13.734 11.2492 13.9934 11.0143 14.7371 11.0143C15.2204 11.0143 15.7741 11.3654 15.7741 11.3654L16.0168 10.1628C16.0168 10.1628 15.3095 9.89453 14.6152 9.89453C13.0428 9.89453 12.2319 10.6466 12.2319 11.5987C12.2319 13.3206 14.3043 13.0846 14.3043 13.969C14.3043 14.1206 14.184 14.4711 13.321 14.4711C12.4553 14.4711 11.884 14.1539 11.884 14.1539L11.6262 15.3081C11.6262 15.3081 12.1798 15.6237 13.2496 15.6237C14.322 15.6237 15.8095 14.8216 15.8095 13.6695C15.8095 12.2836 13.734 12.1836 13.734 11.5648Z" fill="white"/>
<path d="M6.36048 12.9913L5.85736 10.5184C5.85736 10.5184 5.62975 9.98242 5.03809 9.98242C4.44642 9.98242 2.72559 9.98242 2.72559 9.98242C2.72559 9.98242 5.67402 10.8533 6.36048 12.9913Z" fill="#FFC107"/>
</svg>
