<svg width="32" height="33" viewBox="0 0 32 33" fill="none" xmlns="http://www.w3.org/2000/svg">
<rect y="0.5" width="32" height="32" rx="16" fill="#F6F7FC"/>
<path d="M15.9997 9.83398C13.8271 9.83398 11.8988 10.8856 10.6807 12.5007H10.6663V12.5189C9.83298 13.6318 9.33301 15.0076 9.33301 16.5007C9.33301 20.1747 12.3257 23.1673 15.9997 23.1673C19.6737 23.1673 22.6663 20.1747 22.6663 16.5007C22.6663 12.8266 19.6737 9.83398 15.9997 9.83398ZM17.9997 11.5566C19.9564 12.3456 21.333 14.2557 21.333 16.5007C21.333 17.8925 20.8001 19.1529 19.932 20.1009C19.7614 19.5611 19.2627 19.1673 18.6663 19.1673H17.9997V17.1673C17.9997 16.7993 17.701 16.5007 17.333 16.5007H13.9997V15.1673H14.6663C15.0343 15.1673 15.333 14.8687 15.333 14.5007V13.1673H16.6663C17.403 13.1673 17.9997 12.5707 17.9997 11.834V11.5566ZM10.8044 15.3053L11.9997 16.5007L13.9997 18.5007V19.1673C13.9997 19.904 14.5963 20.5007 15.333 20.5007V21.7884C12.6969 21.4614 10.6663 19.2278 10.6663 16.5007C10.6663 16.0888 10.7167 15.69 10.8044 15.3053Z" fill="#6A9586"/>
</svg>
