<svg width="32" height="32" viewBox="0 0 32 32" fill="none" xmlns="http://www.w3.org/2000/svg">
<rect width="32" height="32" rx="16" fill="#F6F7FC"/>
<path d="M12 8.66602V9.99935H11.3333C10.6 9.99935 10 10.5993 10 11.3327V20.666C10 21.3993 10.6 21.9993 11.3333 21.9993H20.6667C21.4 21.9993 22 21.3993 22 20.666V11.3327C22 10.5993 21.4 9.99935 20.6667 9.99935H20V8.66602H18.6667V9.99935H13.3333V8.66602H12ZM11.3333 13.3327H20.6667V20.666H11.3333V13.3327ZM14.6667 15.3327L12.6667 17.3327L14.6667 19.3327V17.9993H17.3333V19.3327L19.3333 17.3327L17.3333 15.3327V16.666H14.6667V15.3327Z" fill="#6A9586"/>
</svg>
