<svg width="24" height="24" viewBox="0 0 24 24" fill="none" xmlns="http://www.w3.org/2000/svg">
<path d="M3.5 8.99998C4.3 8.99998 5 9.69999 5 10.5V19.5C5 20.3 4.3 21 3.5 21C2.7 21 2 20.3 2 19.5V10.5C2 9.69999 2.7 8.99998 3.5 8.99998ZM17 21H9C7.9 21 7 20.1 7 19V9.79998C7 9.29998 7.2 8.79998 7.5 8.49998L10.2 5.49999L10.8 2.99999C10.9 2.39999 11.6 2.09999 12.1 2.29999C13 2.49999 14 3.29999 14 4.89999C14 6.59999 13 8.99998 13 8.99998H20C21.1 8.99998 22 9.89998 22 11V11.9C22 12.3 21.9 12.7 21.7 13.1L18.7 19.9C18.4 20.6 17.8 21 17 21Z" fill="#6A9586"/>
</svg>
